HIERARCHY
ROOT root
{
	OFFSET 0.000000 0.000000 0.000000
	CHANNELS 6 Xposition Yposition Zposition Zrotation Yrotation Xrotation
	JOINT lhip
	{
		OFFSET 0.058581 -0.082280 -0.017664
		CHANNELS 3 Zrotation Yrotation Xrotation
		JOINT lknee
		{
			OFFSET 0.043451 -0.386469 0.008037
			CHANNELS 3 Zrotation Yrotation Xrotation
			JOINT lankle
			{
				OFFSET -0.014790 -0.426874 -0.037428
				CHANNELS 3 Zrotation Yrotation Xrotation
				JOINT ltoe
				{
					OFFSET 0.041054 -0.060286 0.122042
					CHANNELS 3 Zrotation Yrotation Xrotation
					End Site
					{
						OFFSET 0.000000 0.000000 0.000000
					}
				}
			}
		}
	}
	JOINT rhip
	{
		OFFSET -0.060310 -0.090513 -0.013543
		CHANNELS 3 Zrotation Yrotation Xrotation
		JOINT rknee
		{
			OFFSET -0.043257 -0.383688 -0.004843
			CHANNELS 3 Zrotation Yrotation Xrotation
			JOINT rankle
			{
				OFFSET 0.019056 -0.420046 -0.034562
				CHANNELS 3 Zrotation Yrotation Xrotation
				JOINT rtoe
				{
					OFFSET -0.034840 -0.062106 0.130323
					CHANNELS 3 Zrotation Yrotation Xrotation
					End Site
					{
						OFFSET 0.000000 0.000000 0.000000
					}
				}
			}
		}
	}
	JOINT lowerback
	{
		OFFSET 0.004439 0.124404 -0.038385
		CHANNELS 3 Zrotation Yrotation Xrotation
		JOINT upperback
		{
			OFFSET 0.004488 0.137956 0.026820
			CHANNELS 3 Zrotation Yrotation Xrotation
			JOINT chest
			{
				OFFSET -0.002265 0.056032 0.002855
				CHANNELS 3 Zrotation Yrotation Xrotation
				JOINT lowerneck
				{
					OFFSET -0.013390 0.211636 -0.033468
					CHANNELS 3 Zrotation Yrotation Xrotation
					JOINT upperneck
					{
						OFFSET 0.010113 0.088937 0.050410
						CHANNELS 3 Zrotation Yrotation Xrotation
						End Site
						{
							OFFSET 0.000000 0.000000 0.000000
						}
					}
				}
				JOINT lclavicle
				{
					OFFSET 0.071702 0.114000 -0.018898
					CHANNELS 3 Zrotation Yrotation Xrotation
					JOINT lshoulder
					{
						OFFSET 0.122921 0.045205 -0.019046
						CHANNELS 3 Zrotation Yrotation Xrotation
						JOINT lelbow
						{
							OFFSET 0.255332 -0.015649 -0.022946
							CHANNELS 3 Zrotation Yrotation Xrotation
							JOINT lwrist
							{
								OFFSET 0.265709 0.012698 -0.007375
								CHANNELS 3 Zrotation Yrotation Xrotation
								End Site
								{
									OFFSET 0.000000 0.000000 0.000000
								}
							}
						}
					}
				}
				JOINT rclavicle
				{
					OFFSET -0.082954 0.112472 -0.023707
					CHANNELS 3 Zrotation Yrotation Xrotation
					JOINT rshoulder
					{
						OFFSET -0.113228 0.046853 -0.008472
						CHANNELS 3 Zrotation Yrotation Xrotation
						JOINT relbow
						{
							OFFSET -0.260127 -0.014369 -0.031269
							CHANNELS 3 Zrotation Yrotation Xrotation
							JOINT rwrist
							{
								OFFSET -0.269108 0.006794 -0.006027
								CHANNELS 3 Zrotation Yrotation Xrotation
								End Site
								{
									OFFSET 0.000000 0.000000 0.000000
								}
							}
						}
					}
				}
			}
		}
	}
}
MOTION
Frames: 5
Frame Time: 0.033333
0.300568 0.800375 1.020163 11.696614 5.338611 74.571279 2.347058 0.752295 25.559326 -4.851646 -30.450114 10.150157 6.177969 11.527657 -25.399592 0.000000 -0.000000 0.000000 -10.248876 -2.098329 -60.339147 3.755495 -20.721806 82.299767 9.348231 -7.960130 3.648183 0.000000 -0.000000 0.000000 0.356520 -15.695849 22.440141 2.935468 -2.219876 -2.578989 2.016167 -6.083252 0.550839 -4.304113 4.900384 -8.947216 3.583009 2.819158 -6.287821 -11.390398 -12.219481 -1.816263 -49.797759 -31.620692 12.748182 33.192823 -70.046207 -17.801186 6.755683 -12.475393 -12.820705 12.540324 -7.161556 4.511252 45.113187 -24.480782 10.216317 4.502258 58.295758 18.992640 3.847201 11.952503 -9.678256 
0.298706 0.772201 1.014847 11.492399 4.325545 75.924407 1.464686 0.395622 25.872180 -4.852385 -30.338662 10.259413 5.834687 11.385055 -25.719150 0.000000 -0.000000 0.000000 -9.647190 -1.459603 -57.636472 3.933839 -19.389360 74.540553 9.393357 -10.001011 6.536029 0.000000 -0.000000 0.000000 0.012358 -15.103023 21.094693 2.702096 -2.216749 -2.588698 2.012572 -5.948715 0.857064 -4.376298 4.297732 -9.570083 3.617444 2.925214 -6.111973 -11.865681 -11.778229 -1.520876 -49.862219 -31.625364 12.834230 32.583032 -69.795457 -17.176155 7.015094 -12.583130 -12.745027 13.034339 -6.958935 3.695803 45.682685 -23.216665 11.145302 2.900553 58.665218 17.237231 3.475832 11.957956 -10.076318 
0.296320 0.742672 1.007841 11.488063 3.245964 77.669097 0.458769 -0.124931 25.881571 -4.789601 -29.899737 10.288032 5.688941 11.202572 -26.124389 0.000000 -0.000000 0.000000 -8.921787 -0.821092 -53.674146 3.843781 -17.586990 66.020849 8.857532 -12.340266 10.061980 0.000000 -0.000000 0.000000 -0.395646 -14.289895 19.184362 2.553454 -2.265750 -2.499799 2.035385 -5.787066 1.093606 -4.369109 3.442947 -10.117294 3.627518 3.058205 -5.773648 -12.817418 -11.105261 -1.024814 -50.405519 -31.258947 13.326006 30.115830 -69.682938 -14.313518 7.351191 -12.891552 -12.366174 13.898702 -6.718967 2.762397 46.572022 -21.552303 12.261006 0.621745 58.838928 14.790555 3.182899 11.998925 -10.394646 
0.293056 0.710575 0.999626 11.854727 2.268882 79.416619 -0.233392 -0.758955 25.883476 -4.853110 -29.372598 10.542554 5.342141 10.714494 -26.387011 0.000000 -0.000000 0.000000 -8.056973 -0.356687 -48.118801 3.244686 -16.068437 56.865062 7.699744 -14.768586 13.913479 0.000000 -0.000000 0.000000 -0.942608 -13.253051 17.048809 2.571792 -2.520625 -2.206151 2.157813 -5.716681 1.193053 -4.259494 2.525943 -10.434599 3.579052 3.177479 -5.435855 -14.113029 -10.315381 -0.200685 -51.288096 -30.348266 14.036360 26.017199 -69.437648 -9.611708 7.597619 -13.171613 -12.322269 15.142539 -6.283842 1.723332 47.831769 -19.580903 13.487885 -2.592004 58.754883 11.472797 2.990929 11.725031 -11.037951 
0.288744 0.674739 0.990655 12.394871 1.233012 81.075480 -0.737921 -1.397847 25.657850 -5.279374 -28.509409 11.743062 4.396176 9.668987 -26.285052 0.000000 -0.000000 0.000000 -6.941612 -0.283428 -41.182826 2.337613 -15.020627 47.679805 7.354210 -16.044918 16.801497 0.000000 -0.000000 0.000000 -1.777116 -11.729376 14.619565 2.756205 -3.041102 -1.591144 2.336448 -5.657051 1.020824 -4.035940 1.977265 -10.324737 3.336613 2.741113 -5.191677 -15.483833 -9.436703 0.828542 -52.615425 -28.582980 15.103569 20.347538 -68.577692 -3.292699 7.496924 -13.286597 -12.343620 16.793849 -5.670577 0.548516 49.409510 -17.496196 14.602683 -6.222102 58.416337 7.753398 2.344707 11.234308 -11.876850 
